# Blender 4.1.1
# www.blender.org
mtllib plan.mtl
o Plane
v -32.172089 -0.177271 177.368683
v 105.544228 -0.177271 177.368683
v -32.172089 -0.177271 -44.433151
v 105.544228 -0.177271 -44.433151
v -29.075043 -0.177271 -41.336105
v -29.075043 -0.177271 174.271637
v 102.447182 -0.177271 174.271637
v 102.447182 -0.177271 -41.336105
v -29.075043 3.933197 -41.336105
v -29.075043 3.933197 174.271637
v 102.447182 3.933197 174.271637
v 102.447182 3.933197 -41.336105
v -32.172089 3.933197 -44.433151
v -32.172089 3.933197 177.368683
v 105.544228 3.933197 177.368683
v 105.544228 3.933197 -44.433151
vn -0.0000 1.0000 -0.0000
vn 1.0000 -0.0000 -0.0000
vn -1.0000 -0.0000 -0.0000
vn -0.0000 -0.0000 -1.0000
vn -0.0000 -0.0000 1.0000
vt 0.013366 0.013366
vt 0.986634 0.013366
vt 0.986634 0.986634
vt 0.013366 0.986634
vt 0.000000 0.000000
vt 0.000000 1.000000
vt 1.000000 0.000000
vt 1.000000 1.000000
s 0
f 6/1/1 7/2/1 8/3/1 5/4/1
f 6/1/2 5/4/2 9/4/2 10/1/2
f 8/3/3 7/2/3 11/2/3 12/3/3
f 3/5/3 1/5/3 14/5/3 13/5/3
f 2/5/2 4/5/2 16/5/2 15/5/2
f 10/1/1 9/4/1 13/6/1 14/5/1
f 11/2/1 10/1/1 14/5/1 15/7/1
f 12/3/1 11/2/1 15/7/1 16/8/1
f 9/4/1 12/3/1 16/8/1 13/6/1
f 4/5/4 3/5/4 13/5/4 16/5/4
f 1/5/5 2/5/5 15/5/5 14/5/5
f 5/4/5 8/3/5 12/3/5 9/4/5
f 7/2/4 6/1/4 10/1/4 11/2/4
